<?xml version="1.0" encoding="UTF-8"?>
<svg id="Layer_2" data-name="Layer 2" xmlns="http://www.w3.org/2000/svg" viewBox="0 0 46 40">
  <defs>
    <style>
      .cls-1 {
        fill: #0f8;
      }

      .cls-1, .cls-2 {
        stroke-width: 0px;
      }

      .cls-2 {
        fill: #2d00f7;
      }
    </style>
  </defs>
  <g id="Layer_1-2" data-name="Layer 1">
    <path class="cls-2" d="M39.07,32.41h0s-6.47,5.68-6.47,5.68c-1.33,1.19-3.04,1.87-4.83,1.9h-.02s-22.17,0-22.17,0c-.82.03-1.64-.12-2.39-.45-.77-.34-1.44-.84-1.97-1.49-.53-.64-.91-1.4-1.09-2.21-.18-.8-.18-1.63.01-2.42l1.71-8.69c.15-.76.55-1.44,1.14-1.95l.08-.07c-.18-.27-.31-.58-.39-.9-.1-.42-.11-.87-.01-1.29l1.71-8.71h0c.33-1.57,1.17-2.99,2.39-4.03l5.92-5.2c.27-.31.57-.6.9-.87C14.89.66,16.51.05,18.19,0h.03s22.2.06,22.2.06c.82-.03,1.64.12,2.39.45.77.34,1.44.84,1.97,1.49.53.64.91,1.4,1.09,2.21.18.8.18,1.63-.01,2.42l-4.24,21.65v.03c-.38,1.61-1.27,3.05-2.54,4.11Z"/>
    <path class="cls-1" d="M40.07,2.06c.58-.03,1.17.08,1.7.31.53.24,1.01.59,1.38,1.04.37.45.63.98.76,1.55.13.57.12,1.16-.02,1.73l-4.22,21.66c-.3,1.29-1.01,2.44-2.03,3.28-1.02.84-2.29,1.32-3.61,1.36H11.94c-.58.03-1.17-.08-1.7-.31-.53-.24-1.01-.59-1.38-1.04-.37-.45-.63-.98-.76-1.55-.13-.57-.13-1.16.01-1.73l1.7-8.76c.1-.43.34-.81.68-1.09.34-.28.76-.44,1.2-.45,4.03.14,7.9.45,11.51,1.74l.8,5.01c.02.12.08.23.18.31.1.08.22.11.34.11.14,0,.28-.04.4-.11.12-.07.22-.18.29-.3l2.72-5.01,5.45-1.72c.13-.04.25-.12.34-.22.09-.1.16-.23.19-.36.03-.12.02-.25-.04-.36-.06-.11-.15-.19-.27-.23l-4.78-1.71-.8-5.01c-.02-.12-.08-.23-.18-.31-.1-.08-.22-.12-.34-.11-.14,0-.28.04-.4.12-.12.07-.22.18-.29.3l-2.72,5.01c-3.95,1.13-8.04,1.72-12.15,1.74-.2.02-.4-.01-.58-.09-.18-.07-.35-.19-.48-.34-.13-.15-.22-.33-.27-.52-.05-.19-.05-.39,0-.59l1.7-8.76c.29-1.29,1.01-2.44,2.03-3.28,1.02-.84,2.29-1.32,3.61-1.36l22.11.06Z"/>
  </g>
</svg>