<?xml version="1.0" encoding="UTF-8"?>
<svg id="Layer_2" data-name="Layer 2" xmlns="http://www.w3.org/2000/svg" viewBox="0 0 233.6 40">
  <defs>
    <style>
      .cls-1 {
        fill: #00033d;
      }

      .cls-1, .cls-2, .cls-3 {
        stroke-width: 0px;
      }

      .cls-2 {
        fill: #0f8;
      }

      .cls-3 {
        fill: #2d00f7;
      }
    </style>
  </defs>
  <g id="Layer_1-2" data-name="Layer 1">
    <g>
      <path class="cls-3" d="M39.07,32.41h0s-6.47,5.68-6.47,5.68c-1.33,1.19-3.04,1.87-4.83,1.9h-.02s-22.17,0-22.17,0c-.82.03-1.64-.12-2.39-.45-.77-.34-1.44-.84-1.97-1.49-.53-.64-.91-1.4-1.09-2.21-.18-.8-.18-1.63.01-2.42l1.71-8.69c.15-.76.55-1.44,1.14-1.95l.08-.07c-.18-.27-.31-.58-.39-.9-.1-.42-.11-.87-.01-1.29l1.71-8.71h0c.33-1.57,1.17-2.99,2.39-4.03l5.92-5.2c.27-.31.57-.6.9-.87C14.89.66,16.51.05,18.19,0h.03s22.2.06,22.2.06c.82-.03,1.64.12,2.39.45.77.34,1.44.84,1.97,1.49.53.64.91,1.4,1.09,2.21.18.8.18,1.63-.01,2.42l-4.24,21.65v.03c-.38,1.61-1.27,3.05-2.54,4.11Z"/>
      <path class="cls-2" d="M40.07,2.06c.58-.03,1.17.08,1.7.31.53.24,1.01.59,1.38,1.04.37.45.63.98.76,1.55.13.57.12,1.16-.02,1.73l-4.22,21.66c-.3,1.29-1.01,2.44-2.03,3.28-1.02.84-2.29,1.32-3.61,1.36H11.94c-.58.03-1.17-.08-1.7-.31-.53-.24-1.01-.59-1.38-1.04-.37-.45-.63-.98-.76-1.55-.13-.57-.13-1.16.01-1.73l1.7-8.76c.1-.43.34-.81.68-1.09.34-.28.76-.44,1.2-.45,4.03.14,7.9.45,11.51,1.74l.8,5.01c.02.12.08.23.18.31.1.08.22.11.34.11.14,0,.28-.04.4-.11.12-.07.22-.18.29-.3l2.72-5.01,5.45-1.72c.13-.04.25-.12.34-.22.09-.1.16-.23.19-.36.03-.12.02-.25-.04-.36-.06-.11-.15-.19-.27-.23l-4.78-1.71-.8-5.01c-.02-.12-.08-.23-.18-.31-.1-.08-.22-.12-.34-.11-.14,0-.28.04-.4.12-.12.07-.22.18-.29.3l-2.72,5.01c-3.95,1.13-8.04,1.72-12.15,1.74-.2.02-.4-.01-.58-.09-.18-.07-.35-.19-.48-.34-.13-.15-.22-.33-.27-.52-.05-.19-.05-.39,0-.59l1.7-8.76c.29-1.29,1.01-2.44,2.03-3.28,1.02-.84,2.29-1.32,3.61-1.36l22.11.06Z"/>
    </g>
    <polygon class="cls-1" points="73.54 31.96 73.54 20.16 73.63 18.8 68.56 31.96 64.51 31.96 59.41 18.79 59.5 20.13 59.5 31.96 54.24 31.96 54.24 8.04 60.66 8.04 66.52 23.56 72.38 8.04 78.83 8.04 78.83 31.96 73.54 31.96"/>
    <rect class="cls-1" x="80.88" y="8.04" width="5.32" height="23.91"/>
    <path class="cls-1" d="M100.75,32.47c-1.74,0-3.4-.32-4.91-.95-1.51-.63-2.86-1.52-3.98-2.65-1.13-1.13-2.02-2.46-2.65-3.97-.63-1.51-.95-3.15-.95-4.9s.32-3.39.95-4.9c.63-1.51,1.52-2.84,2.65-3.97,1.13-1.13,2.47-2.02,3.98-2.65,1.52-.63,3.17-.95,4.91-.95,1.26,0,2.43.15,3.49.45,1.07.3,2.06.75,2.97,1.32.9.58,1.73,1.29,2.49,2.14l.32.36-3.77,3.65-.35-.41c-.42-.5-.89-.93-1.39-1.29-.5-.35-1.06-.63-1.67-.83-.61-.2-1.3-.3-2.05-.3-1.34,0-2.56.31-3.64.91-1.08.6-1.95,1.46-2.58,2.55-.63,1.09-.96,2.4-.96,3.91s.32,2.79.96,3.89c.63,1.1,1.5,1.96,2.58,2.57,1.08.61,2.31.91,3.64.91,1.19,0,2.26-.25,3.17-.74.93-.5,1.77-1.2,2.49-2.08l.34-.42,3.8,3.6-.3.36c-.78.93-1.66,1.73-2.63,2.38-.98.65-2.06,1.16-3.21,1.49-1.15.33-2.39.5-3.69.5Z"/>
    <path class="cls-1" d="M125.13,31.96l-5.96-8.61h-1.21v8.61h-5.32V8.05h8.85c1.6,0,3.03.33,4.25.98,1.21.66,2.18,1.58,2.87,2.75.68,1.16,1.03,2.51,1.03,4,0,1.12-.24,2.16-.71,3.09-.47.94-1.1,1.72-1.92,2.4-.63.52-1.34.95-2.11,1.28l5.95,8.5v.92h-5.72ZM121.46,18.38c.57,0,1.05-.11,1.48-.35.41-.23.73-.54.98-.96.24-.4.37-.86.37-1.36,0-.46-.11-.91-.32-1.33-.21-.4-.51-.71-.92-.97-.41-.25-.92-.37-1.53-.37h-3.56v5.33h3.5Z"/>
    <path class="cls-1" d="M145.37,32.47c-1.76,0-3.43-.32-4.94-.95-1.52-.63-2.85-1.53-3.97-2.67-1.12-1.14-2-2.48-2.62-3.98-.62-1.5-.93-3.14-.93-4.86s.31-3.36.93-4.86c.62-1.5,1.5-2.84,2.62-3.98,1.12-1.14,2.46-2.04,3.97-2.67,1.52-.63,3.18-.95,4.94-.95s3.42.32,4.93.95,2.84,1.53,3.97,2.67c1.13,1.14,2.02,2.48,2.63,3.99.62,1.51.93,3.14.93,4.86s-.31,3.36-.93,4.86c-.62,1.5-1.51,2.85-2.63,3.99-1.13,1.14-2.46,2.04-3.97,2.67-1.51.63-3.16.95-4.93.95ZM145.37,12.63c-1.31,0-2.52.31-3.59.93-1.07.61-1.94,1.48-2.57,2.57-.63,1.09-.96,2.39-.96,3.88s.32,2.76.96,3.86c.63,1.1,1.5,1.97,2.57,2.58,1.07.61,2.28.93,3.59.93s2.55-.31,3.62-.93c1.07-.61,1.93-1.48,2.57-2.58.63-1.1.96-2.4.96-3.86s-.32-2.79-.96-3.88c-.64-1.09-1.5-1.96-2.57-2.57-1.07-.61-2.29-.93-3.62-.93Z"/>
    <polygon class="cls-1" points="179.19 31.96 179.19 20.16 179.28 18.8 174.2 31.96 170.16 31.96 165.05 18.79 165.14 20.13 165.15 31.96 159.89 31.96 159.89 8.04 166.3 8.04 172.17 23.56 178.03 8.04 184.47 8.04 184.47 31.96 179.19 31.96"/>
    <rect class="cls-1" x="186.53" y="8.04" width="5.32" height="23.91"/>
    <polygon class="cls-1" points="208.1 31.96 198.99 16.76 199.15 19.62 199.15 31.96 193.9 31.96 193.9 8.04 199.71 8.04 208.31 22.38 208.14 19.52 208.14 8.04 213.43 8.04 213.43 31.96 208.1 31.96"/>
    <polygon class="cls-1" points="221.88 31.96 221.88 13.14 215.48 13.14 215.48 8.05 233.6 8.05 233.6 13.14 227.2 13.14 227.2 31.96 221.88 31.96"/>
  </g>
</svg>